<svg width="36" height="36" viewBox="0 0 36 36" fill="none" xmlns="http://www.w3.org/2000/svg">
<rect x="0.5" y="0.5" width="35" height="35" rx="5" fill="#332411"/>
<rect x="2.34082" y="2.34196" width="31.3158" height="31.3158" rx="5" fill="url(#paint0_linear_80_154)"/>
<path d="M13.2202 21.3506L13.0527 21.8216C14.9377 22.4921 16.4778 22.8403 18.0619 22.8395C19.6438 22.8387 21.233 22.4897 23.216 21.8194C23.5101 21.7218 23.8217 21.8789 23.9179 22.1648L23.9182 22.1656C24.0159 22.4543 23.8607 22.7684 23.5717 22.8663C22.8201 23.1203 22.1344 23.3145 21.4689 23.4801L20.8497 23.6342L21.1475 24.1986L21.9816 25.7795C21.9817 25.7797 21.9818 25.7799 21.9819 25.7801C22.1705 26.1393 22.549 26.2369 22.7939 26.2369C22.7957 26.2369 22.8155 26.2373 22.8445 26.2349C23.3289 26.2157 24.483 26.0416 25.693 25.578C26.9132 25.1106 28.2807 24.3144 29.0303 22.9928C29.1178 22.8428 29.1581 22.6779 29.1581 22.5148C29.1581 20.1868 28.6642 17.6936 28.0491 15.671C27.741 14.658 27.3995 13.7532 27.0682 13.0375C26.7474 12.3446 26.4073 11.7636 26.0809 11.4615L26.0686 11.4501L26.0555 11.4396C25.0719 10.6446 23.8993 10.185 22.9928 9.92368C22.5361 9.79204 22.1388 9.70841 21.8544 9.65751C21.712 9.63202 21.5974 9.61466 21.5172 9.60353C21.4772 9.59797 21.4456 9.59397 21.4235 9.59129L21.3975 9.58823L21.3899 9.58739L21.3875 9.58713L21.3867 9.58704L21.3864 9.58701C21.3863 9.58699 21.3861 9.58698 21.3339 10.0842L21.3861 9.58698L20.8479 9.53044L20.834 10.0715L20.8023 11.3158H20.8003H20.788H20.7758H20.7635H20.7512H20.739H20.7267H20.7144H20.7021H20.6899H20.6776H20.6653H20.653H20.6408H20.6285H20.6162H20.6039H20.5916H20.5794H20.5671H20.5548H20.5425H20.5302H20.5179H20.5056H20.4933H20.4811H20.4688H20.4565H20.4442H20.4319H20.4196H20.4073H20.395H20.3827H20.3704H20.3581H20.3458H20.3335H20.3212H20.3088H20.2965H20.2842H20.2719H20.2596H20.2473H20.235H20.2227H20.2103H20.198H20.1857H20.1734H20.1611H20.1487H20.1364H20.1241H20.1118H20.0995H20.0871H20.0748H20.0625H20.0501H20.0378H20.0255H20.0132H20.0008H19.9885H19.9762H19.9638H19.9515H19.9391H19.9268H19.9145H19.9021H19.8898H19.8774H19.8651H19.8528H19.8404H19.8281H19.8157H19.8034H19.791H19.7787H19.7663H19.754H19.7416H19.7293H19.7169H19.7046H19.6922H19.6799H19.6675H19.6552H19.6428H19.6305H19.6181H19.6057H19.5934H19.581H19.5687H19.5563H19.5439H19.5316H19.5192H19.5069H19.4945H19.4821H19.4698H19.4574H19.445H19.4327H19.4203H19.4079H19.3956H19.3832H19.3708H19.3584H19.3461H19.3337H19.3213H19.309H19.2966H19.2842H19.2718H19.2595H19.2471H19.2347H19.2223H19.21H19.1976H19.1852H19.1728H19.1604H19.1481H19.1357H19.1233H19.1109H19.0985H19.0862H19.0738H19.0614H19.049H19.0366H19.0242H19.0118H18.9995H18.9871H18.9747H18.9623H18.9499H18.9375H18.9251H18.9128H18.9004H18.888H18.8756H18.8632H18.8508H18.8384H18.826H18.8136H18.8012H18.7888H18.7765H18.7641H18.7517H18.7393H18.7269H18.7145H18.7021H18.6897H18.6773H18.6649H18.6525H18.6401H18.6277H18.6153H18.6029H18.5905H18.5781H18.5657H18.5534H18.541H18.5286H18.5162H18.5038H18.4914H18.479H18.4666H18.4542H18.4418H18.4294H18.417H18.4046H18.3922H18.3798H18.3674H18.355H18.3426H18.3302H18.3178H18.3054H18.293H18.2806H18.2682H18.2558H18.2434H18.231H18.2186H18.2062H18.1938H18.1814H18.169H18.1566H18.1442H18.1318H18.1194H18.107H18.0946H18.0822H18.0698H18.0574H18.045H18.0326H18.0202H18.0078H17.9954H17.983H17.9706H17.9582H17.9458H17.9334H17.921H17.9086H17.8962H17.8838H17.8714H17.859H17.8466H17.8342H17.8218H17.8094H17.797H17.7846H17.7722H17.7598H17.7474H17.735H17.7226H17.7102H17.6978H17.6854H17.673H17.6606H17.6482H17.6358H17.6234H17.611H17.5986H17.5863H17.5739H17.5615H17.5491H17.5367H17.5243H17.5119H17.4995H17.4871H17.4747H17.4623H17.4499H17.4375H17.4251H17.4128H17.4004H17.388H17.3756H17.3632H17.3508H17.3384H17.326H17.3136H17.3013H17.2889H17.2765H17.2641H17.2517H17.2393H17.2269H17.2146H17.2022H17.1898H17.1774H17.165H17.1526H17.1403H17.1279H17.1155H17.1031H17.0907H17.0784H17.066H17.0536H17.0412H17.0289H17.0165H17.0041H16.9917H16.9793H16.967H16.9546H16.9422H16.9299H16.9175H16.9051H16.8927H16.8804H16.868H16.8556H16.8433H16.8309H16.8185H16.8062H16.7938H16.7814H16.7691H16.7567H16.7443H16.732H16.7196H16.7073H16.6949H16.6825H16.6702H16.6578H16.6455H16.6331H16.6207H16.6084H16.596H16.5837H16.5713H16.559H16.5466H16.5343H16.5219H16.5096H16.4972H16.4849H16.4725H16.4602H16.4478H16.4355H16.4231H16.4108H16.3985H16.3861H16.3738H16.3614H16.3491H16.3368H16.3244H16.3121H16.2997H16.2874H16.2751H16.2627H16.2504H16.2381H16.2257H16.2134H16.2011H16.1888H16.1764H16.1641H16.1518H16.1395H16.1271H16.1148H16.1025H16.0902H16.0779H16.0655H16.0532H16.0409H16.0286H16.0163H16.004H15.9916H15.9793H15.967H15.9547H15.9424H15.9301H15.9178H15.9055H15.8932H15.8809H15.8686H15.8563H15.844H15.8317H15.8194H15.8071H15.7948H15.7825H15.7702H15.7579H15.7456H15.7333H15.7211H15.7088H15.6965H15.6842H15.6719H15.6596H15.6473H15.6351H15.6228H15.6105H15.5982H15.586H15.5737H15.5614H15.5491H15.5369H15.5246H15.5123H15.5001H15.4878H15.4755H15.4703L15.4623 10.1891L15.4585 9.66076L14.9312 9.69363L14.9623 10.1927C14.9312 9.69363 14.9311 9.69364 14.9309 9.69365L14.9306 9.69367L14.9297 9.69373L14.9272 9.69389L14.9195 9.69443L14.8928 9.69643C14.8703 9.69823 14.8382 9.70098 14.7974 9.70498C14.7159 9.71298 14.5995 9.726 14.4548 9.74637C14.1659 9.78706 13.7624 9.85739 13.2986 9.97654C12.3778 10.2131 11.1851 10.6505 10.1839 11.4595L10.1705 11.4703L10.158 11.482C9.83711 11.7797 9.50147 12.3582 9.18464 13.0471C8.85692 13.7598 8.51781 14.6625 8.21129 15.6741C7.59931 17.694 7.10547 20.1874 7.10547 22.5158C7.10547 22.6789 7.14624 22.8422 7.23043 22.9896C7.98016 24.3131 9.3492 25.1099 10.5704 25.5775C11.7804 26.0408 12.9342 26.2147 13.418 26.2338C13.4446 26.2361 13.4635 26.2359 13.4678 26.2358L13.4686 26.2358C13.7152 26.2358 14.0921 26.1379 14.2805 25.7793C14.2807 25.779 14.2808 25.7788 14.2809 25.7785L15.1046 24.2164L15.4007 23.6548L14.7853 23.4986C14.118 23.3291 13.4309 23.1282 12.6822 22.8625C12.3946 22.7604 12.2448 22.4447 12.3471 22.1571C12.449 21.8706 12.766 21.72 13.0531 21.8218L13.2202 21.3506ZM13.2202 21.3506C12.6739 21.1569 12.0707 21.4421 11.876 21.9895C11.6813 22.5369 11.9665 23.139 12.5149 23.3337L24.3918 22.0053C24.2065 21.4548 23.6097 21.1611 23.057 21.3453C19.1402 22.6695 16.9318 22.6706 13.2202 21.3506ZM15.016 16.5221H15.0489L15.0815 16.5178C15.276 16.4921 15.5041 16.5835 15.7204 16.8852C15.9358 17.1856 16.0861 17.6361 16.0949 18.1272C16.0941 18.6082 15.9469 19.0241 15.733 19.3087C15.5187 19.5939 15.2603 19.7242 15.016 19.7242C14.7717 19.7242 14.5133 19.5939 14.299 19.3087C14.0845 19.0233 13.937 18.6059 13.937 18.1232C13.937 17.6411 14.0844 17.2236 14.299 16.938C14.5135 16.6525 14.7719 16.5221 15.016 16.5221ZM21.2855 19.7495C21.0417 19.7495 20.7833 19.6191 20.5688 19.3331C20.3541 19.0468 20.2065 18.6282 20.2065 18.1442C20.2065 17.6603 20.3541 17.2417 20.5688 16.9554C20.7833 16.6694 21.0417 16.539 21.2855 16.539C21.5293 16.539 21.7876 16.6694 22.0022 16.9554C22.2168 17.2417 22.3644 17.6603 22.3644 18.1442C22.3644 18.6282 22.2168 19.0468 22.0022 19.3331C21.7876 19.6191 21.5293 19.7495 21.2855 19.7495Z" fill="url(#paint1_linear_80_154)" stroke="black"/>
<defs>
<linearGradient id="paint0_linear_80_154" x1="17.9987" y1="2.34196" x2="17.9987" y2="33.6577" gradientUnits="userSpaceOnUse">
<stop stop-color="#885D33"/>
<stop offset="1" stop-color="#5E3A11"/>
</linearGradient>
<linearGradient id="paint1_linear_80_154" x1="18.1318" y1="10.0842" x2="18.1318" y2="25.7369" gradientUnits="userSpaceOnUse">
<stop stop-color="#ADB1B4"/>
<stop offset="0.485" stop-color="#685E5F"/>
<stop offset="1" stop-color="#ADB1B4"/>
</linearGradient>
</defs>
</svg>
