<svg width="36" height="36" viewBox="0 0 36 36" fill="none" xmlns="http://www.w3.org/2000/svg">
<rect x="0.5" y="0.5" width="35" height="35" rx="5" fill="#332411"/>
<rect x="2.34082" y="2.34196" width="31.3158" height="31.3158" rx="5" fill="url(#paint0_linear_80_160)"/>
<path d="M12.8333 25C16.4845 25 19.4444 22.0401 19.4444 18.3889C19.4444 14.7377 16.4845 11.7778 12.8333 11.7778C9.18206 11.7778 6.22217 14.7377 6.22217 18.3889C6.22217 22.0401 9.18206 25 12.8333 25Z" fill="url(#paint1_linear_80_160)" stroke="black"/>
<path d="M22.8334 25C23.8919 25 24.7156 24.1549 25.2448 23.0964C25.789 22.008 26.1112 20.5394 26.1112 18.9444C26.1112 17.3495 25.789 15.8809 25.2448 14.7925C24.7156 13.734 23.8919 12.8889 22.8334 12.8889C21.775 12.8889 20.9513 13.734 20.422 14.7925C19.8778 15.8809 19.5557 17.3495 19.5557 18.9444C19.5557 20.5394 19.8778 22.008 20.422 23.0964C20.9513 24.1549 21.775 25 22.8334 25Z" fill="url(#paint2_linear_80_160)" stroke="black"/>
<path d="M27.8333 23.8889C28.073 23.8889 28.2632 23.7773 28.3959 23.6551C28.5259 23.5354 28.6273 23.3828 28.7084 23.2285C28.8711 22.9189 29.0024 22.5038 29.107 22.0329C29.3181 21.083 29.4444 19.7949 29.4444 18.3889C29.4444 16.9829 29.3181 15.6948 29.107 14.7449C29.0024 14.274 28.8711 13.8588 28.7084 13.5493C28.6273 13.395 28.5259 13.2424 28.3959 13.1227C28.2632 13.0004 28.073 12.8889 27.8333 12.8889C27.5936 12.8889 27.4034 13.0004 27.2707 13.1227C27.1406 13.2424 27.0392 13.395 26.9582 13.5493C26.7955 13.8588 26.6642 14.274 26.5595 14.7449C26.3484 15.6948 26.2222 16.9829 26.2222 18.3889C26.2222 19.7949 26.3484 21.083 26.5595 22.0329C26.6642 22.5038 26.7955 22.9189 26.9582 23.2285C27.0392 23.3828 27.1406 23.5354 27.2707 23.6551C27.4034 23.7773 27.5936 23.8889 27.8333 23.8889Z" fill="url(#paint3_linear_80_160)" stroke="black"/>
<defs>
<linearGradient id="paint0_linear_80_160" x1="17.9987" y1="2.34196" x2="17.9987" y2="33.6577" gradientUnits="userSpaceOnUse">
<stop stop-color="#885D33"/>
<stop offset="1" stop-color="#5E3A11"/>
</linearGradient>
<linearGradient id="paint1_linear_80_160" x1="12.8333" y1="12.2778" x2="12.8333" y2="24.5" gradientUnits="userSpaceOnUse">
<stop stop-color="#ADB1B4"/>
<stop offset="0.485" stop-color="#685E5F"/>
<stop offset="1" stop-color="#ADB1B4"/>
</linearGradient>
<linearGradient id="paint2_linear_80_160" x1="22.8334" y1="13.3889" x2="22.8334" y2="24.5" gradientUnits="userSpaceOnUse">
<stop stop-color="#ADB1B4"/>
<stop offset="0.485" stop-color="#685E5F"/>
<stop offset="1" stop-color="#ADB1B4"/>
</linearGradient>
<linearGradient id="paint3_linear_80_160" x1="27.8333" y1="13.3889" x2="27.8333" y2="23.3889" gradientUnits="userSpaceOnUse">
<stop stop-color="#ADB1B4"/>
<stop offset="0.485" stop-color="#685E5F"/>
<stop offset="1" stop-color="#ADB1B4"/>
</linearGradient>
</defs>
</svg>
