<svg width="36" height="36" viewBox="0 0 36 36" fill="none" xmlns="http://www.w3.org/2000/svg">
<rect x="0.5" y="0.5" width="35" height="35" rx="5" fill="#332411"/>
<rect x="2.34082" y="2.34196" width="31.3158" height="31.3158" rx="5" fill="url(#paint0_linear_80_148)"/>
<g clip-path="url(#clip0_80_148)">
<path d="M6.8359 17.3476L6.83593 17.3476C13.3538 14.3951 21.7047 10.8239 23.4695 10.0692C23.548 10.0356 23.6135 10.0076 23.6652 9.98549L23.6656 9.98533C24.4704 9.64168 25.1625 9.38845 25.7399 9.25845C26.3025 9.13179 26.8452 9.10055 27.2904 9.30849C27.779 9.53669 28.0218 9.98613 28.1117 10.5129C28.1988 11.0229 28.1575 11.6702 28.0331 12.4387L6.8359 17.3476ZM6.8359 17.3476C6.39348 17.548 6.01138 17.7606 5.71898 17.9858C5.43882 18.2017 5.17601 18.4785 5.08529 18.8263C4.98035 19.2286 5.13569 19.5878 5.41248 19.8547C5.66877 20.1018 6.04934 20.2968 6.5112 20.4601L6.8359 17.3476ZM25.8656 26.2494L25.8656 26.2495C25.7415 26.9366 25.5737 27.5045 25.3496 27.9478C25.1247 28.3925 24.8269 28.7427 24.4301 28.9389C23.6221 29.3382 22.7108 28.9701 21.8566 28.3899L21.8565 28.3898C21.0519 27.8429 16.9489 25.0492 16.0502 24.3873C16.021 24.3658 15.9905 24.3435 15.9591 24.3206C15.7846 24.1932 15.5794 24.0435 15.3948 23.8811C15.1758 23.6886 14.9469 23.4462 14.8021 23.143C14.6498 22.8242 14.6003 22.4576 14.7162 22.0572C14.8275 21.6731 15.0806 21.2932 15.465 20.906C15.9089 20.4583 18.5144 17.8954 20.871 15.58C17.5915 17.8199 13.6923 20.4862 13.1503 20.8654L13.1502 20.8655C12.6598 21.2084 12.1428 21.4841 11.5133 21.5967C10.8845 21.7091 10.1888 21.651 9.34787 21.4022C9.34786 21.4022 9.34785 21.4022 9.34784 21.4022L9.48966 20.9227C8.4003 20.6006 7.33396 20.2217 6.81168 20.0362L25.8656 26.2494ZM25.8656 26.2494C26.4268 23.1387 27.0897 18.7012 27.5574 15.57M25.8656 26.2494L27.5574 15.57M27.5574 15.57C27.7612 14.2057 27.9279 13.0893 28.0331 12.4388L27.5574 15.57Z" fill="url(#paint1_linear_80_148)" stroke="black"/>
</g>
<defs>
<linearGradient id="paint0_linear_80_148" x1="17.9987" y1="2.34196" x2="17.9987" y2="33.6577" gradientUnits="userSpaceOnUse">
<stop stop-color="#885D33"/>
<stop offset="1" stop-color="#5E3A11"/>
</linearGradient>
<linearGradient id="paint1_linear_80_148" x1="16.6054" y1="9.6579" x2="16.6054" y2="28.6053" gradientUnits="userSpaceOnUse">
<stop stop-color="#ADB1B4"/>
<stop offset="0.485" stop-color="#685E5F"/>
<stop offset="1" stop-color="#ADB1B4"/>
</linearGradient>
<clipPath id="clip0_80_148">
<rect width="25.2632" height="25.2632" fill="white" transform="translate(4.5 6.5)"/>
</clipPath>
</defs>
</svg>
