<svg width="36" height="36" viewBox="0 0 36 36" fill="none" xmlns="http://www.w3.org/2000/svg">
<rect x="0.5" y="0.5" width="35" height="35" rx="5" fill="#332411"/>
<rect x="2.34082" y="2.34196" width="31.3158" height="31.3158" rx="5" fill="url(#paint0_linear_80_142)"/>
<path d="M30.3659 11.9393L31.3948 10.4678L29.7534 11.1957C29.5309 11.2944 29.3099 11.3856 29.0887 11.4679C29.417 11.0312 29.681 10.5474 29.8635 10.0429L30.3426 8.71824L29.1355 9.44436C28.3221 9.93368 27.5177 10.2672 26.6517 10.4568C25.6609 9.5505 24.3984 9 23.0336 9C20.2285 9 17.9466 11.2813 17.9466 14.0833C17.9466 14.0975 17.9466 14.1119 17.9466 14.1264C17.9465 14.2624 17.9464 14.4143 17.9539 14.5706C14.5155 14.2418 11.5186 12.5737 9.4802 10.0281L9.06624 9.51116L8.68244 10.0509C8.13552 10.82 7.93567 11.7735 7.93567 12.6798C7.93567 13.7705 8.28914 14.7767 8.87244 15.6049C8.79809 15.5737 8.7269 15.5413 8.65928 15.5075L8.43567 15.9547H8.22857H7.93567V15.9547V15.9547V15.9547V15.9547V15.9547V15.9547V15.9547V15.9547V15.9547V15.9547V15.9547V15.9547V15.9547V15.9547V15.9547V15.9548V15.9548V15.9548V15.9548V15.9548V15.9548V15.9548V15.9548V15.9548V15.9548V15.9548V15.9548V15.9548V15.9548V15.9548V15.9548V15.9549V15.9549V15.9549V15.9549V15.9549V15.9549V15.9549V15.9549V15.9549V15.9549V15.955V15.955V15.955V15.955V15.955V15.955V15.955V15.955V15.9551V15.9551V15.9551V15.9551V15.9551V15.9551V15.9551V15.9552V15.9552V15.9552V15.9552V15.9552V15.9552V15.9553V15.9553V15.9553V15.9553V15.9553V15.9554V15.9554V15.9554V15.9554V15.9555V15.9555V15.9555V15.9555V15.9555V15.9556V15.9556V15.9556V15.9556V15.9557V15.9557V15.9557V15.9558V15.9558V15.9558V15.9558V15.9559V15.9559V15.9559V15.956V15.956V15.956V15.9561V15.9561V15.9561V15.9562V15.9562V15.9562V15.9563V15.9563V15.9563V15.9564V15.9564V15.9565V15.9565V15.9565V15.9566V15.9566V15.9567V15.9567V15.9567V15.9568V15.9568V15.9569V15.9569V15.957V15.957V15.9571V15.9571V15.9572V15.9572V15.9573V15.9573V15.9574V15.9574V15.9575V15.9575V15.9576V15.9576V15.9577V15.9577V15.9578V15.9579V15.9579V15.958V15.958V15.9581V15.9582V15.9582V15.9583V15.9583V15.9584V15.9585V15.9585V15.9586V15.9587V15.9587V15.9588V15.9589V15.9589V15.959V15.9591V15.9592V15.9592V15.9593V15.9594V15.9595V15.9595V15.9596V15.9597V15.9598V15.9598V15.9599V15.96V15.9601V15.9602V15.9603V15.9603V15.9604V15.9605V15.9606V15.9607V15.9608V15.9609V15.961V15.961V15.9611V15.9612V15.9613V15.9614V15.9615V15.9616V15.9617V15.9618V15.9619V15.962V15.9621V15.9622V15.9623V15.9624V15.9625V15.9626V15.9627V15.9629V15.963V15.9631V15.9632V15.9633V15.9634V15.9635V15.9636V15.9637V15.9639V15.964V15.9641V15.9642V15.9643V15.9645V15.9646V15.9647V15.9648V15.965V15.9651V15.9652V15.9653V15.9655V15.9656V15.9657V15.9659V15.966V15.9661V15.9663V15.9664V15.9666V15.9667V15.9668V15.967V15.9671V15.9673V15.9674V15.9676V15.9677V15.9679V15.968V15.9682V15.9683V15.9685V15.9686V15.9688V15.9689V15.9691V15.9692V15.9694V15.9696V15.9697V15.9699V15.9701V15.9702V15.9704V15.9706V15.9707V15.9709V15.9711V15.9712V15.9714V15.9716V15.9718V15.9719V15.9721V15.9723V15.9725V15.9727V15.9729V15.973V15.9732V15.9734V15.9736V15.9738V15.974V15.9742V15.9744V15.9746V15.9748V15.975V15.9752V15.9754V15.9756V15.9758V15.976V15.9762V15.9764V15.9766V15.9768V15.977V15.9772V15.9774V15.9777V15.9779V15.9781V15.9783V15.9785V15.9788V15.979V15.9792V15.9794V15.9797V15.9799V15.9801V15.9804V15.9806V15.9808V15.9811V15.9813V15.9815V15.9818V15.982V15.9823V15.9825V15.9828V15.983V15.9832V15.9835V15.9838V15.984V15.9843V15.9845V15.9848V15.985V15.9853V15.9856V15.9858V15.9861V15.9864V15.9866V15.9869V15.9872V15.9874V15.9877V15.988V15.9883V15.9885V15.9888V15.9891V15.9894V15.9897V15.99V15.9903V15.9905V15.9908V15.9911V15.9914V15.9917V15.992V15.9923V15.9926V15.9929V15.9932V15.9935V15.9938V15.9941V15.9945V15.9948V15.9951V15.9954V15.9957V15.996V15.9964V15.9967V15.997V15.9973V15.9977V15.998V15.9983V15.9986V15.999V15.9993V15.9997V16V16.0003V16.0007V16.001V16.0014V16.0017V16.0021V16.0024V16.0028V16.0031V16.0035V16.0038V16.0042V16.0046V16.0049V16.0053V16.0056V16.006V16.0064V16.0068V16.0071V16.0075V16.0079V16.0083V16.0086V16.009V16.0094V16.0098V16.0102V16.0106V16.011V16.0114V16.0118V16.0122V16.0126V16.013V16.0134V16.0138V16.0142V16.0146V16.015V16.0154V16.0158V16.0162V16.0166V16.0171V16.0175V16.0179V16.0183V16.0188V16.0192V16.0196V16.0201V16.0205V16.0209V16.0214V16.0218V16.0223V16.0227V16.0231V16.0236V16.024V16.0245V16.025V16.0254V16.0259V16.0263V16.0268V16.0273V16.0277V16.0282V16.0287V16.0291V16.0296V16.0301V16.0306V16.031V16.0315V16.032V16.0325V16.033V16.0335V16.034V16.0345V16.035V16.0355V16.036V16.0365V16.037V16.0375V16.038V16.0385V16.039V16.0395V16.04V16.0406V16.0411V16.0416V16.0421V16.0427V16.0432V16.0437V16.0442V16.0448V16.0453V16.0459V16.0464V16.0469V16.0475V16.048V16.0486V16.0492V16.0497V16.2637L7.94014 16.2659C8.00337 17.7945 8.7336 19.1549 9.83819 20.042L9.26776 19.8494L9.54678 20.7771C10.0406 22.4188 11.3148 23.6747 12.9526 24.1305C11.668 24.8573 10.1969 25.2792 8.62208 25.2792C8.23982 25.2792 7.92372 25.2769 7.61903 25.2022L7.23171 26.1098C9.3664 27.4672 11.8931 28.2456 14.5175 28.2456C23.3684 28.2456 28.117 20.9417 28.117 14.6462V14.6451V14.644V14.6429V14.6418V14.6407V14.6396V14.6386V14.6375V14.6364V14.6353V14.6342V14.6331V14.632V14.6309V14.6298V14.6287V14.6276V14.6265V14.6254V14.6244V14.6233V14.6222V14.6211V14.62V14.6189V14.6178V14.6167V14.6156V14.6145V14.6134V14.6123V14.6112V14.6102V14.6091V14.608V14.6069V14.6058V14.6047V14.6036V14.6025V14.6014V14.6003V14.5992V14.5981V14.597V14.596V14.5949V14.5938V14.5927V14.5916V14.5905V14.5894V14.5883V14.5872V14.5861V14.585V14.5839V14.5828V14.5818V14.5807V14.5796V14.5785V14.5774V14.5763V14.5752V14.5741V14.573V14.5719V14.5708V14.5697V14.5686V14.5675V14.5665V14.5654V14.5643V14.5632V14.5621V14.561V14.5599V14.5588V14.5577V14.5566V14.5555V14.5544V14.5533V14.5523V14.5512V14.5501V14.549V14.5479V14.5468V14.5457V14.5446V14.5435V14.5424V14.5413V14.5402V14.5391V14.538V14.5369V14.5359V14.5348V14.5337V14.5326V14.5315V14.5304V14.5293V14.5282V14.5271V14.526V14.5249V14.5238V14.5227V14.5216V14.5206V14.5195V14.5184V14.5173V14.5162V14.5151V14.514V14.5129V14.5118V14.5107V14.5096V14.5085V14.5074V14.5063V14.5052V14.5042V14.5031V14.502V14.5009V14.4998V14.4987V14.4976V14.4965V14.4954V14.4943V14.4932V14.4921V14.491V14.4899V14.4888V14.4877V14.4867V14.4856V14.4845V14.4834V14.4823V14.4812V14.4801V14.479V14.4779V14.4768V14.4757V14.4746V14.4735V14.4724V14.4713V14.4702V14.4691V14.4681V14.467V14.4659V14.4648V14.4637V14.4626V14.4615V14.4604V14.4593V14.4582V14.4571V14.456V14.4549V14.4538V14.4527V14.4516V14.4505V14.4494V14.4483V14.4473V14.4462V14.4451V14.444V14.4429V14.4418V14.4407V14.4396V14.4385V14.4374V14.4363V14.4352V14.4341V14.433V14.4319V14.4308V14.4297V14.4286V14.4275V14.4264V14.4253V14.4243V14.4232V14.4221V14.421V14.4199V14.4188V14.4177V14.4166V14.4155V14.4144V14.4133V14.4122V14.4111V14.41V14.4089V14.4078V14.4067V14.4056V14.4045V14.4034V14.4023V14.4012V14.4001V14.399V14.3979V14.3969V14.3958V14.3947V14.3936V14.3925V14.3914V14.3903V14.3892V14.3881V14.387V14.3859V14.3848V14.3837V14.3826V14.3815V14.3804V14.3793V14.3782V14.3771V14.376V14.3749V14.3738V14.3727V14.3716V14.3705V14.3694V14.3683V14.3672V14.3661V14.365V14.3639V14.3628V14.3617V14.3606V14.3595V14.3585V14.3574V14.3563V14.3552V14.3541V14.353V14.3519V14.3508V14.3497V14.3486V14.3475V14.3464V14.3453V14.3442V14.3431V14.342V14.3409V14.3398V14.3387V14.3386C29.0153 13.6659 29.7391 12.8358 30.3659 11.9393Z" fill="url(#paint1_linear_80_142)" stroke="black"/>
<defs>
<linearGradient id="paint0_linear_80_142" x1="17.9987" y1="2.34196" x2="17.9987" y2="33.6577" gradientUnits="userSpaceOnUse">
<stop stop-color="#885D33"/>
<stop offset="1" stop-color="#5E3A11"/>
</linearGradient>
<linearGradient id="paint1_linear_80_142" x1="18.7281" y1="9.5" x2="18.7281" y2="27.7456" gradientUnits="userSpaceOnUse">
<stop stop-color="#ADB1B4"/>
<stop offset="0.485" stop-color="#685E5F"/>
<stop offset="1" stop-color="#ADB1B4"/>
</linearGradient>
</defs>
</svg>
